<svg width="34" height="34" viewBox="0 0 34 34" fill="none" xmlns="http://www.w3.org/2000/svg">
<path fill-rule="evenodd" clip-rule="evenodd" d="M18.3749 18.2334H32.5169L32.3754 14.6978L18.3749 14.7606V0.696982L14.8393 0.838404L14.9018 14.7762L0.838478 14.8393L0.555635 18.2334H14.9173L14.9808 32.3754L18.3749 32.6582L18.3749 18.2334Z" fill="#7EE980"/>
<path d="M32.5169 18.2334V18.7334L33.0373 18.7334L33.0165 18.2134L32.5169 18.2334ZM18.3749 18.2334V17.7334L17.8749 17.7334L17.8749 18.2334H18.3749ZM32.3754 14.6978L32.875 14.6779L32.8558 14.1957L32.3732 14.1978L32.3754 14.6978ZM18.3749 14.7606H17.8749L17.8749 15.2629L18.3771 15.2606L18.3749 14.7606ZM18.3749 0.696982L18.8749 0.696982L18.8749 0.176583L18.3549 0.197382L18.3749 0.696982ZM14.8393 0.838404L14.8193 0.338804L14.3372 0.358091L14.3393 0.840646L14.8393 0.838404ZM14.9018 14.7762L14.9041 15.2762L15.4041 15.2739L15.4018 14.7739L14.9018 14.7762ZM0.838478 14.8393L0.836236 14.3393L0.37824 14.3413L0.340205 14.7977L0.838478 14.8393ZM0.555635 18.2334L0.0573619 18.1918L0.012235 18.7334L0.555635 18.7334L0.555635 18.2334ZM14.9173 18.2334L15.4173 18.2311L15.4151 17.7334L14.9173 17.7334V18.2334ZM14.9808 32.3754L14.4808 32.3776L14.4828 32.8356L14.9392 32.8736L14.9808 32.3754ZM18.3749 32.6582L18.3333 33.1565L18.8749 33.2016L18.8749 32.6582L18.3749 32.6582ZM32.5169 17.7334H18.3749V18.7334H32.5169V17.7334ZM31.8758 14.7178L32.0173 18.2534L33.0165 18.2134L32.875 14.6779L31.8758 14.7178ZM18.3771 15.2606L32.3777 15.1978L32.3732 14.1978L18.3726 14.2606L18.3771 15.2606ZM17.8749 0.696983L17.8749 14.7606H18.8749L18.8749 0.696982L17.8749 0.696983ZM14.8593 1.338L18.3948 1.19658L18.3549 0.197382L14.8193 0.338804L14.8593 1.338ZM15.4018 14.7739L15.3393 0.836162L14.3393 0.840646L14.4018 14.7784L15.4018 14.7739ZM0.84072 15.3393L14.9041 15.2762L14.8996 14.2762L0.836236 14.3393L0.84072 15.3393ZM1.05391 18.2749L1.33675 14.8808L0.340205 14.7977L0.0573619 18.1918L1.05391 18.2749ZM14.9173 17.7334L0.555635 17.7334L0.555635 18.7334L14.9173 18.7334V17.7334ZM15.4807 32.3731L15.4173 18.2311L14.4173 18.2356L14.4808 32.3776L15.4807 32.3731ZM18.4164 32.1599L15.0223 31.8771L14.9392 32.8736L18.3333 33.1565L18.4164 32.1599ZM17.8749 18.2334L17.8749 32.6582L18.8749 32.6582L18.8749 18.2334H17.8749Z" fill="#7EE980"/>
</svg>
