<svg width="27" height="27" viewBox="0 0 27 27" fill="none" xmlns="http://www.w3.org/2000/svg">
<path fill-rule="evenodd" clip-rule="evenodd" d="M13.6001 15.8001L23.6 25.8L26 23.2L16.0557 13.3445L26.0002 3.4L23.4002 1L13.5889 10.8997L3.6 1L1 3.2L11.1553 13.3553L1.2002 23.4L3.4002 26L13.6001 15.8001Z" fill="#369EFF"/>
<path d="M23.6 25.8L23.2464 26.1536L23.6144 26.5215L23.9674 26.1391L23.6 25.8ZM13.6001 15.8001L13.9537 15.4465L13.6001 15.093L13.2465 15.4465L13.6001 15.8001ZM26 23.2L26.3674 23.5391L26.6947 23.1846L26.352 22.8449L26 23.2ZM16.0557 13.3445L15.7022 12.9909L15.347 13.3461L15.7037 13.6996L16.0557 13.3445ZM26.0002 3.4L26.3538 3.75355L26.7217 3.38557L26.3393 3.0326L26.0002 3.4ZM23.4002 1L23.7393 0.632598L23.3847 0.305287L23.0451 0.648036L23.4002 1ZM13.5889 10.8997L13.2369 11.2548L13.5921 11.6068L13.944 11.2517L13.5889 10.8997ZM3.6 1L3.95196 0.644865L3.62666 0.322465L3.27703 0.618307L3.6 1ZM1 3.2L0.677029 2.81831L0.262205 3.16931L0.646447 3.55355L1 3.2ZM11.1553 13.3553L11.5104 13.7072L11.8608 13.3537L11.5088 13.0017L11.1553 13.3553ZM1.2002 23.4L0.84506 23.048L0.52266 23.3733L0.818502 23.723L1.2002 23.4ZM3.4002 26L3.0185 26.323L3.36951 26.7378L3.75375 26.3536L3.4002 26ZM23.9536 25.4464L13.9537 15.4465L13.2465 16.1537L23.2464 26.1536L23.9536 25.4464ZM25.6326 22.8609L23.2326 25.4609L23.9674 26.1391L26.3674 23.5391L25.6326 22.8609ZM15.7037 13.6996L25.648 23.5551L26.352 22.8449L16.4077 12.9894L15.7037 13.6996ZM25.6466 3.04645L15.7022 12.9909L16.4093 13.698L26.3538 3.75355L25.6466 3.04645ZM23.0611 1.3674L25.6611 3.7674L26.3393 3.0326L23.7393 0.632598L23.0611 1.3674ZM13.944 11.2517L23.7553 1.35196L23.0451 0.648036L13.2338 10.5477L13.944 11.2517ZM3.24804 1.35514L13.2369 11.2548L13.9409 10.5446L3.95196 0.644865L3.24804 1.35514ZM1.32297 3.58169L3.92297 1.38169L3.27703 0.618307L0.677029 2.81831L1.32297 3.58169ZM11.5088 13.0017L1.35355 2.84645L0.646447 3.55355L10.8017 13.7088L11.5088 13.0017ZM1.55533 23.752L11.5104 13.7072L10.8001 13.0033L0.84506 23.048L1.55533 23.752ZM3.78189 25.677L1.58189 23.077L0.818502 23.723L3.0185 26.323L3.78189 25.677ZM13.2465 15.4465L3.04664 25.6464L3.75375 26.3536L13.9537 16.1537L13.2465 15.4465Z" fill="#369EFF"/>
</svg>
